<?xml version="1.0" standalone="no"?>
<!DOCTYPE svg PUBLIC "-//W3C//DTD SVG 20010904//EN"
 "http://www.w3.org/TR/2001/REC-SVG-20010904/DTD/svg10.dtd">
<svg version="1.0" xmlns="http://www.w3.org/2000/svg"
 width="128.000000pt" height="128.000000pt" viewBox="0 0 128.000000 128.000000"
 preserveAspectRatio="xMidYMid meet">

<g transform="translate(0.000000,128.000000) scale(0.100000,-0.100000)"
fill="#000000" stroke="none">
<path d="M472 1035 c-32 -17 -63 -42 -77 -64 -50 -76 -41 -182 22 -248 18 -20
33 -37 33 -38 0 -1 -18 -7 -39 -14 -22 -6 -61 -31 -89 -56 -64 -57 -94 -125
-100 -226 -4 -73 -3 -77 24 -108 43 -47 105 -55 404 -56 l255 0 47 28 c117 68
141 228 50 329 -52 58 -106 79 -189 77 -56 -2 -107 8 -141 28 -2 1 12 18 32
37 114 115 39 317 -125 332 -45 5 -63 1 -107 -21z m181 -48 c98 -74 82 -219
-29 -272 -107 -50 -235 43 -221 161 13 121 155 184 250 111z m9 -343 l59 -17
-35 -35 c-75 -74 -85 -180 -27 -274 l30 -48 -26 -6 c-40 -10 -272 3 -332 19
-29 8 -58 21 -63 28 -16 24 -3 150 20 195 65 127 215 182 374 138z m258 -46
c132 -67 132 -249 0 -316 -56 -28 -104 -28 -160 0 -131 67 -132 246 -1 315 56
29 104 29 161 1z"/>
<path d="M772 508 c-9 -9 -6 -18 15 -40 l27 -28 -27 -28 c-21 -22 -24 -31 -15
-40 9 -9 18 -6 40 15 l28 27 28 -27 c22 -21 31 -24 40 -15 9 9 6 18 -15 40
l-27 28 27 28 c21 22 24 31 15 40 -9 9 -18 6 -40 -15 l-28 -27 -28 27 c-22 21
-31 24 -40 15z"/>
</g>
</svg>
